<svg viewBox="0 0 28 28" width="46" height="46" xmlns="http://www.w3.org/2000/svg" shape-rendering="crispEdges"><rect x="3" y="5" width="2" height="1" fill="#ffe8ac"></rect><rect x="13" y="5" width="2" height="1" fill="#634c19"></rect><rect x="23" y="5" width="2" height="1" fill="#ffe8ac"></rect><rect x="2" y="6" width="3" height="1" fill="#ffe8ac"></rect><rect x="13" y="6" width="2" height="1" fill="#634c19"></rect><rect x="23" y="6" width="3" height="1" fill="#ffe8ac"></rect><rect x="2" y="7" width="2" height="1" fill="#ffe8ac"></rect><rect x="13" y="7" width="2" height="1" fill="#634c19"></rect><rect x="24" y="7" width="2" height="1" fill="#ffe8ac"></rect><rect x="1" y="8" width="3" height="1" fill="#ffe8ac"></rect><rect x="12" y="8" width="1" height="1" fill="#634c19"></rect><rect x="13" y="8" width="2" height="1" fill="#ffefc5"></rect><rect x="15" y="8" width="1" height="1" fill="#634c19"></rect><rect x="24" y="8" width="3" height="1" fill="#ffe8ac"></rect><rect x="1" y="9" width="3" height="1" fill="#eec872"></rect><rect x="12" y="9" width="1" height="1" fill="#634c19"></rect><rect x="13" y="9" width="1" height="1" fill="#ffebb6"></rect><rect x="14" y="9" width="1" height="1" fill="#ffe8ac"></rect><rect x="15" y="9" width="1" height="1" fill="#634c19"></rect><rect x="24" y="9" width="3" height="1" fill="#eec872"></rect><rect x="1" y="10" width="3" height="1" fill="#eec872"></rect><rect x="11" y="10" width="1" height="1" fill="#634c19"></rect><rect x="12" y="10" width="1" height="1" fill="#ffefc5"></rect><rect x="13" y="10" width="2" height="1" fill="#ffe8ac"></rect><rect x="15" y="10" width="1" height="1" fill="#ffefc5"></rect><rect x="16" y="10" width="1" height="1" fill="#634c19"></rect><rect x="24" y="10" width="3" height="1" fill="#eec872"></rect><rect x="1" y="11" width="2" height="1" fill="#eec872"></rect><rect x="10" y="11" width="1" height="1" fill="#634c19"></rect><rect x="11" y="11" width="1" height="1" fill="#f3d99c"></rect><rect x="12" y="11" width="1" height="1" fill="#eec872"></rect><rect x="13" y="11" width="2" height="1" fill="#f4deae"></rect><rect x="15" y="11" width="1" height="1" fill="#eec872"></rect><rect x="16" y="11" width="1" height="1" fill="#f3d99c"></rect><rect x="17" y="11" width="1" height="1" fill="#634c19"></rect><rect x="25" y="11" width="2" height="1" fill="#eec872"></rect><rect x="1" y="12" width="2" height="1" fill="#eec872"></rect><rect x="9" y="12" width="1" height="1" fill="#634c19"></rect><rect x="10" y="12" width="1" height="1" fill="#f3d99c"></rect><rect x="11" y="12" width="1" height="1" fill="#eec872"></rect><rect x="12" y="12" width="4" height="1" fill="#f4deae"></rect><rect x="16" y="12" width="1" height="1" fill="#eec872"></rect><rect x="17" y="12" width="1" height="1" fill="#f3d99c"></rect><rect x="18" y="12" width="1" height="1" fill="#634c19"></rect><rect x="25" y="12" width="2" height="1" fill="#eec872"></rect><rect x="1" y="13" width="2" height="1" fill="#eec872"></rect><rect x="7" y="13" width="2" height="1" fill="#634c19"></rect><rect x="9" y="13" width="1" height="1" fill="#f3d99c"></rect><rect x="10" y="13" width="1" height="1" fill="#eec872"></rect><rect x="11" y="13" width="2" height="1" fill="#f4deae"></rect><rect x="13" y="13" width="2" height="1" fill="#463612"></rect><rect x="15" y="13" width="2" height="1" fill="#f4deae"></rect><rect x="17" y="13" width="1" height="1" fill="#eec872"></rect><rect x="18" y="13" width="1" height="1" fill="#f3d99c"></rect><rect x="19" y="13" width="2" height="1" fill="#634c19"></rect><rect x="25" y="13" width="2" height="1" fill="#eec872"></rect><rect x="1" y="14" width="2" height="1" fill="#eec872"></rect><rect x="7" y="14" width="2" height="1" fill="#634c19"></rect><rect x="9" y="14" width="1" height="1" fill="#bea05b"></rect><rect x="10" y="14" width="1" height="1" fill="#eec872"></rect><rect x="11" y="14" width="2" height="1" fill="#d0b06a"></rect><rect x="13" y="14" width="2" height="1" fill="#463612"></rect><rect x="15" y="14" width="2" height="1" fill="#d0b06a"></rect><rect x="17" y="14" width="1" height="1" fill="#eec872"></rect><rect x="18" y="14" width="1" height="1" fill="#bea05b"></rect><rect x="19" y="14" width="2" height="1" fill="#634c19"></rect><rect x="25" y="14" width="2" height="1" fill="#eec872"></rect><rect x="1" y="15" width="2" height="1" fill="#eec872"></rect><rect x="9" y="15" width="1" height="1" fill="#634c19"></rect><rect x="10" y="15" width="1" height="1" fill="#bea05b"></rect><rect x="11" y="15" width="1" height="1" fill="#eec872"></rect><rect x="12" y="15" width="4" height="1" fill="#d0b06a"></rect><rect x="16" y="15" width="1" height="1" fill="#eec872"></rect><rect x="17" y="15" width="1" height="1" fill="#bea05b"></rect><rect x="18" y="15" width="1" height="1" fill="#634c19"></rect><rect x="25" y="15" width="2" height="1" fill="#eec872"></rect><rect x="1" y="16" width="2" height="1" fill="#eec872"></rect><rect x="10" y="16" width="1" height="1" fill="#634c19"></rect><rect x="11" y="16" width="1" height="1" fill="#bea05b"></rect><rect x="12" y="16" width="1" height="1" fill="#eec872"></rect><rect x="13" y="16" width="2" height="1" fill="#d0b06a"></rect><rect x="15" y="16" width="1" height="1" fill="#eec872"></rect><rect x="16" y="16" width="1" height="1" fill="#bea05b"></rect><rect x="17" y="16" width="1" height="1" fill="#634c19"></rect><rect x="25" y="16" width="2" height="1" fill="#eec872"></rect><rect x="1" y="17" width="3" height="1" fill="#dca838"></rect><rect x="11" y="17" width="1" height="1" fill="#634c19"></rect><rect x="12" y="17" width="1" height="1" fill="#bea05b"></rect><rect x="13" y="17" width="2" height="1" fill="#eec872"></rect><rect x="15" y="17" width="1" height="1" fill="#bea05b"></rect><rect x="16" y="17" width="1" height="1" fill="#634c19"></rect><rect x="24" y="17" width="3" height="1" fill="#dca838"></rect><rect x="1" y="18" width="3" height="1" fill="#dca838"></rect><rect x="12" y="18" width="1" height="1" fill="#634c19"></rect><rect x="13" y="18" width="1" height="1" fill="#e0b250"></rect><rect x="14" y="18" width="1" height="1" fill="#dca838"></rect><rect x="15" y="18" width="1" height="1" fill="#634c19"></rect><rect x="24" y="18" width="3" height="1" fill="#dca838"></rect><rect x="1" y="19" width="3" height="1" fill="#dca838"></rect><rect x="12" y="19" width="1" height="1" fill="#634c19"></rect><rect x="13" y="19" width="2" height="1" fill="#b0862d"></rect><rect x="15" y="19" width="1" height="1" fill="#634c19"></rect><rect x="24" y="19" width="3" height="1" fill="#dca838"></rect><rect x="2" y="20" width="2" height="1" fill="#dca838"></rect><rect x="13" y="20" width="2" height="1" fill="#634c19"></rect><rect x="24" y="20" width="2" height="1" fill="#dca838"></rect><rect x="2" y="21" width="3" height="1" fill="#dca838"></rect><rect x="13" y="21" width="2" height="1" fill="#634c19"></rect><rect x="23" y="21" width="3" height="1" fill="#dca838"></rect><rect x="3" y="22" width="2" height="1" fill="#dca838"></rect><rect x="13" y="22" width="2" height="1" fill="#634c19"></rect><rect x="23" y="22" width="2" height="1" fill="#dca838"></rect></svg>
